<svg xmlns="http://www.w3.org/2000/svg" xmlns:svg="http://www.w3.org/2000/svg" xmlns:xlink="http://www.w3.org/1999/xlink" id="svg2" width="850" height="450" version="1.1"><defs id="defs4"><marker id="Arrow1Mend" orient="auto" refX="0" refY="0" style="overflow:visible"><path id="path4017" d="M 0,0 5,-5 -12.5,0 5,5 0,0 z" transform="matrix(-0.4,0,0,-0.4,-4,0)" style="fill-rule:evenodd;stroke:#000;stroke-width:1pt;marker-start:none"/></marker><marker id="Arrow1Lend" orient="auto" refX="0" refY="0" style="overflow:visible"><path id="path4011" d="M 0,0 5,-5 -12.5,0 5,5 0,0 z" transform="matrix(-0.8,0,0,-0.8,-10,0)" style="fill-rule:evenodd;stroke:#000;stroke-width:1pt;marker-start:none"/></marker><linearGradient id="linearGradient3941"><stop id="stop3943" offset="0" style="stop-color:#005eb4;stop-opacity:1"/><stop id="stop3945" offset="1" style="stop-color:#92cbff;stop-opacity:1"/></linearGradient><linearGradient id="linearGradient3933"><stop style="stop-color:#740076;stop-opacity:1" id="stop3935" offset="0"/><stop style="stop-color:#fd74ff;stop-opacity:1" id="stop3937" offset="1"/></linearGradient><linearGradient id="linearGradient3939" x1="273.242" x2="273.242" y1="224.769" y2="44.619" gradientTransform="translate(266.47722,448.67017)" gradientUnits="userSpaceOnUse" xlink:href="#linearGradient3941"/></defs><metadata id="metadata7"/><g id="layer1" transform="translate(-116.15133,-354.07642)"><rect style="fill:url(#linearGradient3939);fill-opacity:1;stroke:#005eb4;stroke-width:1.875;stroke-miterlimit:4;stroke-opacity:1;stroke-dasharray:none" id="rect2985" width="465.823" height="179.79" x="309.334" y="495.318" ry="20.971"/><text style="font-size:18.73706436px;font-style:normal;font-variant:normal;font-weight:700;font-stretch:normal;text-align:start;line-height:125%;letter-spacing:0;word-spacing:0;writing-mode:lr-tb;text-anchor:start;fill:#fff;fill-opacity:1;stroke:none;font-family:Arial;-inkscape-font-specification:Arial Bold" id="text3755" x="497.48" y="519.946" xml:space="preserve"><tspan id="tspan3757" x="497.48" y="519.946">PROJECT</tspan></text><rect id="rect3790" width="138.81" height="129.409" x="322.913" y="533.439" ry="10.009" style="fill:#fff;fill-opacity:.71980681;stroke:#005eb4;stroke-width:1.90385377;stroke-miterlimit:4;stroke-opacity:1;stroke-dasharray:none"/><text style="font-size:15.40377808px;font-style:normal;font-variant:normal;font-weight:700;font-stretch:normal;text-align:start;line-height:125%;letter-spacing:0;word-spacing:0;writing-mode:lr-tb;text-anchor:start;fill:#000;fill-opacity:1;stroke:none;font-family:Arial;-inkscape-font-specification:Arial Bold" id="text3792" x="343.948" y="554.823" xml:space="preserve"><tspan id="tspan3804" x="343.948" y="554.823">General Files</tspan></text><rect style="fill:#fff;fill-opacity:.71980681;stroke:#005eb4;stroke-width:1.90385377;stroke-miterlimit:4;stroke-opacity:1;stroke-dasharray:none" id="rect3834" width="138.81" height="129.409" x="472.913" y="533.439" ry="10.009"/><text id="text3836" x="510.69" y="554.823" xml:space="preserve" style="font-size:15.40377808px;font-style:normal;font-variant:normal;font-weight:700;font-stretch:normal;text-align:start;line-height:125%;letter-spacing:0;word-spacing:0;writing-mode:lr-tb;text-anchor:start;fill:#000;fill-opacity:1;stroke:none;font-family:Arial;-inkscape-font-specification:Arial Bold"><tspan id="tspan3838" x="510.69" y="554.823">Services</tspan></text><rect style="fill:#fff;fill-opacity:.71980681;stroke:#005eb4;stroke-width:1.90385377;stroke-miterlimit:4;stroke-opacity:1;stroke-dasharray:none" id="rect3870" width="138.81" height="129.409" x="622.913" y="533.439" ry="10.009"/><text id="text3872" x="646.437" y="554.823" xml:space="preserve" style="font-size:15.40377808px;font-style:normal;font-variant:normal;font-weight:700;font-stretch:normal;text-align:start;line-height:125%;letter-spacing:0;word-spacing:0;writing-mode:lr-tb;text-anchor:start;fill:#000;fill-opacity:1;stroke:none;font-family:Arial;-inkscape-font-specification:Arial Bold"><tspan id="tspan3874" x="646.437" y="554.823">Applications</tspan></text><path style="fill:#fff;fill-opacity:.71980681;stroke:#005eb4;stroke-width:1.5;stroke-miterlimit:4;stroke-opacity:.66222223;stroke-dasharray:none" id="rect3961" d="m 482.69597,598.60767 c -2.58593,0.26105 -4.59375,2.43674 -4.59375,5.09375 l 0,8.625 c 0,2.83415 2.29085,5.125 5.125,5.125 l 57.125,0 48.0625,76 -48.25,0 c -4.0237,0 -7.25,3.22629 -7.25,7.25 l 0,79.375 c 0,4.0237 3.2263,7.25 7.25,7.25 l 124.28125,0 c 4.0237,0 7.28125,-3.2263 7.28125,-7.25 l 0,-79.375 c 0,-4.02371 -3.25755,-7.25 -7.28125,-7.25 l -46.25,0 -73.5,-76 56.9375,0 c 2.83415,0 5.125,-2.29085 5.125,-5.125 l 0,-8.625 c 0,-2.83415 -2.29085,-5.09375 -5.125,-5.09375 l -118.40625,0 c -0.17713,0 -0.35885,-0.0174 -0.53125,0 z"/><text id="text3963" x="581.736" y="714.823" xml:space="preserve" style="font-size:15.40377808px;font-style:normal;font-variant:normal;font-weight:700;font-stretch:normal;text-align:start;line-height:125%;letter-spacing:0;word-spacing:0;writing-mode:lr-tb;text-anchor:start;fill:#000;fill-opacity:1;stroke:none;font-family:Arial;-inkscape-font-specification:Arial Bold"><tspan id="tspan3965" x="581.736" y="714.823">office</tspan></text><text style="font-size:15.40377808px;font-style:normal;font-variant:normal;font-weight:400;font-stretch:normal;text-align:start;line-height:125%;letter-spacing:0;word-spacing:0;writing-mode:lr-tb;text-anchor:start;fill:#000;fill-opacity:1;stroke:none;font-family:Arial;-inkscape-font-specification:Arial" id="text3967" x="542.775" y="734.823" xml:space="preserve"><tspan id="tspan3973" x="542.775" y="734.823">__init__.py</tspan><tspan id="tspan3999" x="542.775" y="754.078">views.py</tspan><tspan id="tspan4001" x="542.775" y="773.332">urls.py</tspan></text><path style="fill:#fff;fill-opacity:.71980681;stroke:#005eb4;stroke-width:1.5;stroke-miterlimit:4;stroke-opacity:.66222223;stroke-dasharray:none" id="rect4663" d="m 816.16472,453.45142 c -4.0237,0 -7.25,3.2263 -7.25,7.25 l 0,64.53125 -52.84375,37.90625 c -0.83857,-1.67503 -2.55498,-2.8125 -4.5625,-2.8125 l -118.375,0 c -2.83415,0 -5.125,2.2596 -5.125,5.09375 l 0,8.96875 c 0,2.83415 2.29085,5.125 5.125,5.125 l 118.375,0 c 2.83415,0 5.09375,-2.29085 5.09375,-5.125 l 0,-6.4375 52.3125,-17.96875 0,30.09375 c 0,4.0237 3.2263,7.25 7.25,7.25 l 124.28125,0 c 4.0237,0 7.28125,-3.2263 7.28125,-7.25 l 0,-119.375 c 0,-4.0237 -3.25755,-7.25 -7.28125,-7.25 z"/><text style="font-size:15.40377808px;font-style:normal;font-variant:normal;font-weight:700;font-stretch:normal;text-align:start;line-height:125%;letter-spacing:0;word-spacing:0;writing-mode:lr-tb;text-anchor:start;fill:#000;fill-opacity:1;stroke:none;font-family:Arial;-inkscape-font-specification:Arial Bold" id="text4665" x="839.399" y="474.823" xml:space="preserve"><tspan id="tspan4667" x="839.399" y="474.823">customers</tspan></text><text id="text4669" x="818.775" y="494.823" xml:space="preserve" style="font-size:15.40377808px;font-style:normal;font-variant:normal;font-weight:400;font-stretch:normal;text-align:start;line-height:125%;letter-spacing:0;word-spacing:0;writing-mode:lr-tb;text-anchor:start;fill:#000;fill-opacity:1;stroke:none;font-family:Arial;-inkscape-font-specification:Arial"><tspan id="tspan4671" x="818.775" y="494.823">__init__.py</tspan><tspan id="tspan4673" x="818.775" y="514.078">views.py</tspan><tspan id="tspan4675" x="818.775" y="533.332">urls.py</tspan><tspan id="tspan3861" x="818.775" y="552.587">models.py</tspan><tspan id="tspan3863" x="818.775" y="571.842">admin.py</tspan></text><path style="fill:#fff;fill-opacity:.71980681;stroke:#005eb4;stroke-width:1.5;stroke-miterlimit:4;stroke-opacity:.66222223;stroke-dasharray:none" id="rect4677" d="m 632.60222,600.32642 c -2.58593,0.26105 -4.59375,2.43674 -4.59375,5.09375 l 0,8.96875 c 0,2.83415 2.29085,5.125 5.125,5.125 l 118.375,0 c 1.86123,0 3.48007,-0.99046 4.375,-2.46875 l 41.03125,35.96875 0,107.0625 c 0,4.0237 3.2263,7.25 7.25,7.25 l 124.28125,0 c 4.0237,0 7.28125,-3.2263 7.28125,-7.25 l 0,-139.375 c 0,-4.02371 -3.25755,-7.25 -7.28125,-7.25 l -124.28125,0 c -4.0237,0 -7.25,3.22629 -7.25,7.25 l 0,9.0625 -40.3125,-17.65625 0,-6.6875 c 0,-2.83415 -2.2596,-5.09375 -5.09375,-5.09375 l -118.375,0 c -0.17713,0 -0.35885,-0.0174 -0.53125,0 z"/><text id="text4679" x="832.261" y="634.823" xml:space="preserve" style="font-size:15.40377808px;font-style:normal;font-variant:normal;font-weight:700;font-stretch:normal;text-align:start;line-height:125%;letter-spacing:0;word-spacing:0;writing-mode:lr-tb;text-anchor:start;fill:#000;fill-opacity:1;stroke:none;font-family:Arial;-inkscape-font-specification:Arial Bold"><tspan id="tspan4681" x="832.261" y="634.823">suppliers</tspan></text><text style="font-size:15.40377808px;font-style:normal;font-variant:normal;font-weight:400;font-stretch:normal;text-align:start;line-height:125%;letter-spacing:0;word-spacing:0;writing-mode:lr-tb;text-anchor:start;fill:#000;fill-opacity:1;stroke:none;font-family:Arial;-inkscape-font-specification:Arial" id="text4683" x="806.775" y="654.823" xml:space="preserve"><tspan id="tspan4685" x="806.775" y="654.823">__init__.py</tspan><tspan id="tspan4687" x="806.775" y="674.078">views.py</tspan><tspan id="tspan4689" x="806.775" y="693.332">urls.py</tspan><tspan id="tspan3865" x="806.775" y="712.587">models.py</tspan><tspan id="tspan3867" x="806.775" y="731.842">admin.py</tspan><tspan id="tspan3869" x="806.775" y="751.097">rest.py</tspan></text><path id="path3871" d="m 268.46383,490.70142 c 4.0237,0 7.25,3.2263 7.25,7.25 l 0,44.53125 52.84375,77.90625 c 0.83857,-1.67503 2.55498,-2.8125 4.5625,-2.8125 l 118.375,0 c 2.83415,0 5.125,2.2596 5.125,5.09375 l 0,8.96875 c 0,2.83415 -2.29085,5.125 -5.125,5.125 l -118.375,0 c -2.83415,0 -5.09375,-2.29085 -5.09375,-5.125 l 0,-6.4375 -52.3125,-57.96875 0,10.09375 c 0,4.0237 -3.2263,7.25 -7.25,7.25 l -124.28125,0 c -4.0237,0 -7.28125,-3.2263 -7.28125,-7.25 l 0,-79.375 c 0,-4.0237 3.25755,-7.25 7.28125,-7.25 z" style="fill:#fff;fill-opacity:.71980681;stroke:#005eb4;stroke-width:1.5;stroke-miterlimit:4;stroke-opacity:.66222223;stroke-dasharray:none"/><path style="fill:#fff;fill-opacity:.71980681;stroke:#005eb4;stroke-width:1.5;stroke-miterlimit:4;stroke-opacity:.66222223;stroke-dasharray:none" id="path3889" d="m 268.46383,612.70142 c 4.0237,0 7.25,3.2263 7.25,7.25 l 0,64.53125 52.84375,-42.09375 c 0.83857,-1.67503 2.55498,-2.8125 4.5625,-2.8125 l 118.375,0 c 2.83415,0 5.125,2.2596 5.125,5.09375 l 0,8.96875 c 0,2.83415 -2.29085,5.125 -5.125,5.125 l -118.375,0 c -2.83415,0 -5.09375,-2.29085 -5.09375,-5.125 l 0,-6.4375 -52.3125,62.03125 0,30.09375 c 0,4.0237 -3.2263,7.25 -7.25,7.25 l -124.28125,0 c -4.0237,0 -7.28125,-3.2263 -7.28125,-7.25 l 0,-119.375 c 0,-4.0237 3.25755,-7.25 7.28125,-7.25 z"/><path style="fill:#fff;fill-opacity:.71980681;stroke:#005eb4;stroke-width:1.5;stroke-miterlimit:4;stroke-opacity:.66222223;stroke-dasharray:none" id="rect4661" d="m 484.25847,579.32642 c -3.69593,0 -6.6875,-2.96032 -6.6875,-6.65625 l 0,-6.15625 c 0,-1.64879 0.60964,-3.15069 1.59375,-4.3125 l -52.46875,-96.03125 -86.5625,0 c -4.0237,0 -7.25,-3.22629 -7.25,-7.25 l 0,-79.375 c 0,-4.0237 3.2263,-7.25 7.25,-7.25 l 124.28125,0 c 4.0237,0 7.28125,3.2263 7.28125,7.25 l 0,79.375 c 0,4.02371 -3.25755,7.25 -7.28125,7.25 l -6.90625,0 23.84375,94.3125 c 0.87369,-0.4186 1.86934,-0.625 2.90625,-0.625 l 115.75,0 c 3.69593,0 6.6875,2.96032 6.6875,6.65625 l 0,6.15625 c 0,3.69593 -2.99157,6.65625 -6.6875,6.65625 z"/><text style="font-size:15.40377808px;font-style:normal;font-variant:normal;font-weight:700;font-stretch:normal;text-align:start;line-height:125%;letter-spacing:0;word-spacing:0;writing-mode:lr-tb;text-anchor:start;fill:#000;fill-opacity:1;stroke:none;font-family:Arial;-inkscape-font-specification:Arial Bold" id="text3949" x="379.31" y="392.823" xml:space="preserve"><tspan id="tspan3951" x="379.31" y="392.823">public</tspan></text><text id="text3953" x="342.775" y="412.823" xml:space="preserve" style="font-size:15.40377808px;font-style:normal;font-variant:normal;font-weight:400;font-stretch:normal;text-align:start;line-height:125%;letter-spacing:0;word-spacing:0;writing-mode:lr-tb;text-anchor:start;fill:#000;fill-opacity:1;stroke:none;font-family:Arial;-inkscape-font-specification:Arial"><tspan id="tspan3959" x="342.775" y="412.823">__init__.py</tspan><tspan id="tspan3986" x="342.775" y="432.078">views.py</tspan><tspan id="tspan3992" x="342.775" y="451.332">urls.py</tspan></text><text style="font-size:15.40377808px;font-style:normal;font-variant:normal;font-weight:400;font-stretch:normal;text-align:start;line-height:125%;letter-spacing:0;word-spacing:0;writing-mode:lr-tb;text-anchor:start;fill:#000;fill-opacity:1;stroke:none;font-family:Arial;-inkscape-font-specification:Arial" id="text3840" x="482.775" y="574.823" xml:space="preserve"><tspan id="tspan3850" x="482.775" y="574.823">public</tspan><tspan id="tspan3868" x="482.775" y="594.078">api</tspan><tspan id="tspan3847" x="482.775" y="613.332">office</tspan></text><text style="font-size:15.40377808px;font-style:normal;font-variant:normal;font-weight:400;font-stretch:normal;text-align:start;line-height:125%;letter-spacing:0;word-spacing:0;writing-mode:lr-tb;text-anchor:start;fill:#000;fill-opacity:1;stroke:none;font-family:Arial;-inkscape-font-specification:Arial" id="text3876" x="632.775" y="574.823" xml:space="preserve"><tspan id="tspan3886" x="632.775" y="574.823">customers</tspan><tspan id="tspan3902" x="632.775" y="594.078">orders</tspan><tspan id="tspan3906" x="632.775" y="613.332">suppliers</tspan><tspan id="tspan3910" x="632.775" y="632.587">purchases</tspan><tspan id="tspan3912" x="632.775" y="651.842">delivery</tspan></text><text id="text3873" x="171.391" y="512.073" xml:space="preserve" style="font-size:15.40377808px;font-style:normal;font-variant:normal;font-weight:700;font-stretch:normal;text-align:start;line-height:125%;letter-spacing:0;word-spacing:0;writing-mode:lr-tb;text-anchor:start;fill:#000;fill-opacity:1;stroke:none;font-family:Arial;-inkscape-font-specification:Arial Bold"><tspan id="tspan3875" x="171.391" y="512.073">templates</tspan></text><text style="font-size:15.40377808px;font-style:normal;font-variant:normal;font-weight:400;font-stretch:normal;text-align:start;line-height:125%;letter-spacing:0;word-spacing:0;writing-mode:lr-tb;text-anchor:start;fill:#000;fill-opacity:1;stroke:none;font-family:Arial;-inkscape-font-specification:Arial" id="text3877" x="145.67" y="532.073" xml:space="preserve"><tspan id="tspan3887" x="145.67" y="532.073">base.html</tspan><tspan id="tspan3922" x="145.67" y="551.328">home.html</tspan><tspan id="tspan3924" x="145.67" y="570.582">contact_form.html</tspan></text><text id="text3808" x="332.775" y="574.823" xml:space="preserve" style="font-size:15.40377808px;font-style:normal;font-variant:normal;font-weight:400;font-stretch:normal;text-align:start;line-height:125%;letter-spacing:0;word-spacing:0;writing-mode:lr-tb;text-anchor:start;fill:#000;fill-opacity:1;stroke:none;font-family:Arial;-inkscape-font-specification:Arial"><tspan id="tspan3810" x="332.775" y="574.823">__init__.py</tspan><tspan id="tspan3812" x="332.775" y="594.078">settings.py</tspan><tspan id="tspan3814" x="332.775" y="613.332">views.py</tspan><tspan id="tspan3816" x="332.775" y="632.587">templates</tspan><tspan id="tspan3818" x="332.775" y="651.842">static</tspan></text><text style="font-size:15.40377808px;font-style:normal;font-variant:normal;font-weight:700;font-stretch:normal;text-align:start;line-height:125%;letter-spacing:0;word-spacing:0;writing-mode:lr-tb;text-anchor:start;fill:#000;fill-opacity:1;stroke:none;font-family:Arial;-inkscape-font-specification:Arial Bold" id="text3891" x="186.991" y="634.073" xml:space="preserve"><tspan id="tspan3893" x="186.991" y="634.073">static</tspan></text><text id="text3895" x="145.67" y="654.073" xml:space="preserve" style="font-size:15.40377808px;font-style:normal;font-variant:normal;font-weight:400;font-stretch:normal;text-align:start;line-height:125%;letter-spacing:0;word-spacing:0;writing-mode:lr-tb;text-anchor:start;fill:#000;fill-opacity:1;stroke:none;font-family:Arial;-inkscape-font-specification:Arial"><tspan id="tspan3905" x="145.67" y="654.073">all.css</tspan><tspan id="tspan3940" x="145.67" y="673.328">basic.js</tspan><tspan id="tspan3942" x="145.67" y="692.582">jquery.js</tspan><tspan id="tspan3944" x="145.67" y="711.837">logo.png</tspan><tspan id="tspan3946" x="145.67" y="731.092">front.jpg</tspan></text></g></svg>