<svg xmlns="http://www.w3.org/2000/svg" xmlns:svg="http://www.w3.org/2000/svg" xmlns:xlink="http://www.w3.org/1999/xlink" id="svg2" width="480" height="450" version="1.1"><defs id="defs4"><linearGradient id="linearGradient4130"><stop style="stop-color:#ff0;stop-opacity:1" id="stop4132" offset="0"/><stop style="stop-color:#ffffb5;stop-opacity:1" id="stop4134" offset="1"/></linearGradient><linearGradient id="linearGradient4122"><stop style="stop-color:#ff0;stop-opacity:1" id="stop4124" offset="0"/><stop style="stop-color:#ffffdc;stop-opacity:1" id="stop4126" offset="1"/></linearGradient><linearGradient id="linearGradient3907"><stop style="stop-color:#5f5;stop-opacity:1" id="stop3909" offset="0"/><stop style="stop-color:#00a800;stop-opacity:0" id="stop3911" offset="1"/></linearGradient><linearGradient id="linearGradient3891"><stop style="stop-color:#ff7474;stop-opacity:1" id="stop3893" offset="0"/><stop style="stop-color:red;stop-opacity:0" id="stop3895" offset="1"/></linearGradient><linearGradient id="linearGradient3883"><stop style="stop-color:#83c0f7;stop-opacity:1" id="stop3885" offset="0"/><stop style="stop-color:#83c0f7;stop-opacity:0" id="stop3887" offset="1"/></linearGradient><marker id="Arrow1Mend" orient="auto" refX="0" refY="0" style="overflow:visible"><path id="path4017" d="M 0,0 5,-5 -12.5,0 5,5 0,0 z" transform="matrix(-0.4,0,0,-0.4,-4,0)" style="fill-rule:evenodd;stroke:#000;stroke-width:1pt;marker-start:none"/></marker><marker id="Arrow1Lend" orient="auto" refX="0" refY="0" style="overflow:visible"><path id="path4011" d="M 0,0 5,-5 -12.5,0 5,5 0,0 z" transform="matrix(-0.8,0,0,-0.8,-10,0)" style="fill-rule:evenodd;stroke:#000;stroke-width:1pt;marker-start:none"/></marker><linearGradient id="linearGradient3941"><stop id="stop3943" offset="0" style="stop-color:#005eb4;stop-opacity:1"/><stop id="stop3945" offset="1" style="stop-color:#92cbff;stop-opacity:1"/></linearGradient><linearGradient id="linearGradient3933"><stop style="stop-color:#740076;stop-opacity:1" id="stop3935" offset="0"/><stop style="stop-color:#fd74ff;stop-opacity:1" id="stop3937" offset="1"/></linearGradient><linearGradient id="linearGradient3889" x1="133.061" x2="344.233" y1="146.028" y2="146.028" gradientUnits="userSpaceOnUse" xlink:href="#linearGradient3883"/><linearGradient id="linearGradient3897" x1="133.061" x2="344.233" y1="146.028" y2="146.028" gradientUnits="userSpaceOnUse" xlink:href="#linearGradient3891"/><linearGradient id="linearGradient3913" x1="133.061" x2="344.233" y1="146.028" y2="146.028" gradientUnits="userSpaceOnUse" xlink:href="#linearGradient3907"/><linearGradient id="linearGradient4178" x1="68.656" x2="158.656" y1="295.516" y2="295.516" gradientTransform="translate(136.15133,314.07642)" gradientUnits="userSpaceOnUse" xlink:href="#linearGradient4122"/><radialGradient id="radialGradient4180" cx="229.819" cy="594.07" r="45.004" fx="229.819" fy="594.07" gradientTransform="matrix(1,0,0,0.46158403,20,279.85675)" gradientUnits="userSpaceOnUse" xlink:href="#linearGradient4130"/><linearGradient id="linearGradient4248" x1="97.056" x2="97.056" y1="121.057" y2="26.535" gradientTransform="matrix(1.1117318,0,0,1.4358974,185.79098,333.25355)" gradientUnits="userSpaceOnUse" xlink:href="#linearGradient3941"/><linearGradient id="linearGradient3075" x1="97.056" x2="97.056" y1="121.057" y2="26.535" gradientTransform="matrix(1.1117318,0,0,1.4358974,185.79098,333.25355)" gradientUnits="userSpaceOnUse" xlink:href="#linearGradient3941"/></defs><metadata id="metadata7"/><g id="layer1" transform="translate(-188.12738,-344.5561)"><g id="g3066" transform="translate(0,-20)"><rect id="rect4240" width="166.45" height="140.52" x="209.038" y="370.485" ry="9.651" style="fill:url(#linearGradient3075);fill-opacity:1;stroke:none"/><rect style="fill:#fff;fill-opacity:1;stroke:none" id="rect4250" width="155.576" height="109.572" x="214.475" y="395.433" ry="7.526"/><text id="text4254" x="248.281" y="388.578" xml:space="preserve" style="font-size:16.60974693px;font-style:normal;font-variant:normal;font-weight:700;font-stretch:normal;line-height:125%;letter-spacing:0;word-spacing:0;fill:#fff;fill-opacity:1;stroke:none;font-family:Arial;-inkscape-font-specification:Arial Bold"><tspan id="tspan4256" x="248.281" y="388.578">BROWSER</tspan></text><rect id="rect4258" width="34.294" height="93.68" x="222.748" y="403.106" ry="7.526" style="fill:teal;fill-opacity:.30196078;stroke:none"/><rect style="fill:teal;fill-opacity:.30196078;stroke:none" id="rect4260" width="99.535" height="25.093" x="262.748" y="403.106" ry="7.034"/><path id="path4262" d="m 268.78357,441.7271 89.74544,0 -89.34629,25.21305 89.34629,0 -90.11199,25.42912 89.31778,0" style="fill:none;stroke:#000;stroke-width:4.87216377;stroke-linecap:round;stroke-linejoin:round;stroke-miterlimit:4;stroke-opacity:1;stroke-dasharray:none"/></g><rect style="fill:teal;fill-opacity:.30196078;stroke:none" id="rect4264" width="94.517" height="53.532" x="488.332" y="481.069" ry="11.345"/><text style="font-size:16.6523304px;font-style:normal;font-variant:normal;font-weight:700;font-stretch:normal;text-align:center;line-height:100%;letter-spacing:0;word-spacing:0;writing-mode:lr-tb;text-anchor:middle;fill:#000;fill-opacity:1;stroke:none;font-family:Arial;-inkscape-font-specification:Arial Bold" id="text4266" x="535.338" y="505.465" xml:space="preserve"><tspan id="tspan4268" x="535.338" y="505.465" style="line-height:100%">PROXY</tspan><tspan id="tspan3043" x="535.338" y="522.117" style="line-height:100%">SERVER</tspan></text><g id="g3077" transform="translate(0,-20)"><path id="path4270" d="m 574.8793,412.67798 c 22.07016,-1.08611 29.7552,26.29801 5.63387,26.65111 0.48916,14.21092 -10.94949,28.43382 -41.86684,13.19088 -6.14083,4.38429 -29.21459,20.75286 -45.2945,-9.36594 -11.06243,7.73407 -34.54593,-9.88023 -6.25017,-23.19714 -9.78042,-12.22355 1.89588,-34.12033 23.72483,-16.62786 -0.6824,-10.23627 27.89741,-26.83322 40.00658,-8.81413 16.52799,-4.55815 33.77659,-1.35679 24.04623,18.16308 z" style="fill:#ccc;fill-opacity:.30196078;stroke:#b3b3b3"/><text style="font-size:19.6608181px;font-style:normal;font-variant:normal;font-weight:700;font-stretch:normal;text-align:start;line-height:125%;letter-spacing:0;word-spacing:0;writing-mode:lr-tb;text-anchor:start;fill:#000;fill-opacity:1;stroke:none;font-family:Arial;-inkscape-font-specification:Arial Bold" id="text4273" x="514.043" y="430.867" xml:space="preserve"><tspan id="tspan4275" x="514.043" y="430.867">NET</tspan></text></g><rect id="rect3035" width="93.68" height="53.532" x="337.008" y="533.069" ry="11.345" style="fill:teal;fill-opacity:.30196078;stroke:none"/><text id="text3037" x="383.472" y="550.846" xml:space="preserve" style="font-size:14px;font-style:normal;font-variant:normal;font-weight:700;font-stretch:normal;text-align:center;line-height:100%;letter-spacing:0;word-spacing:0;writing-mode:lr-tb;text-anchor:middle;fill:#000;fill-opacity:1;stroke:none;font-family:Arial;-inkscape-font-specification:Arial Bold"><tspan id="tspan3039" x="383.472" y="550.846" style="font-size:14px;font-style:normal;font-variant:normal;font-weight:700;font-stretch:normal;text-align:center;line-height:100%;writing-mode:lr-tb;text-anchor:middle;font-family:Arial;-inkscape-font-specification:Arial Bold">RUNNING</tspan><tspan style="font-size:14px;font-style:normal;font-variant:normal;font-weight:700;font-stretch:normal;text-align:center;line-height:100%;writing-mode:lr-tb;text-anchor:middle;font-family:Arial;-inkscape-font-specification:Arial Bold" id="tspan3049" x="383.472" y="564.846">LONDON</tspan><tspan style="font-size:14px;font-style:normal;font-variant:normal;font-weight:700;font-stretch:normal;text-align:center;line-height:100%;writing-mode:lr-tb;text-anchor:middle;font-family:Arial;-inkscape-font-specification:Arial Bold" id="tspan3045" x="383.472" y="578.846">PROJECT</tspan></text><rect style="fill:teal;fill-opacity:.30196078;stroke:none" id="rect3051" width="116.264" height="28.439" x="325.48" y="625.616" ry="11.046"/><text style="font-size:14px;font-style:normal;font-variant:normal;font-weight:700;font-stretch:normal;text-align:center;line-height:100%;letter-spacing:0;word-spacing:0;writing-mode:lr-tb;text-anchor:middle;fill:#000;fill-opacity:1;stroke:none;font-family:Arial;-inkscape-font-specification:Arial Bold" id="text3053" x="383.472" y="644.846" xml:space="preserve"><tspan id="tspan3059" x="383.472" y="644.846" style="font-size:14px;font-style:normal;font-variant:normal;font-weight:700;font-stretch:normal;text-align:center;line-height:100%;writing-mode:lr-tb;text-anchor:middle;font-family:Arial;-inkscape-font-specification:Arial Bold">MIDDLEWARE</tspan></text><rect id="rect3082" width="136.338" height="28.439" x="234.951" y="731.616" ry="11.046" style="fill:teal;fill-opacity:.30196078;stroke:none"/><text id="text3084" x="303.472" y="750.846" xml:space="preserve" style="font-size:14px;font-style:normal;font-variant:normal;font-weight:700;font-stretch:normal;text-align:center;line-height:100%;letter-spacing:0;word-spacing:0;writing-mode:lr-tb;text-anchor:middle;fill:#000;fill-opacity:1;stroke:none;font-family:Arial;-inkscape-font-specification:Arial Bold"><tspan style="font-size:14px;font-style:normal;font-variant:normal;font-weight:700;font-stretch:normal;text-align:center;line-height:100%;writing-mode:lr-tb;text-anchor:middle;font-family:Arial;-inkscape-font-specification:Arial Bold" id="tspan3086" x="303.472" y="750.846">VIEW FUNCTIONS</tspan></text><rect style="fill:teal;fill-opacity:.30196078;stroke:none" id="rect3088" width="70.26" height="28.439" x="399.99" y="731.616" ry="11.046"/><text style="font-size:14px;font-style:normal;font-variant:normal;font-weight:700;font-stretch:normal;text-align:center;line-height:100%;letter-spacing:0;word-spacing:0;writing-mode:lr-tb;text-anchor:middle;fill:#000;fill-opacity:1;stroke:none;font-family:Arial;-inkscape-font-specification:Arial Bold" id="text3090" x="435.472" y="750.846" xml:space="preserve"><tspan id="tspan3092" x="435.472" y="750.846" style="font-size:14px;font-style:normal;font-variant:normal;font-weight:700;font-stretch:normal;text-align:center;line-height:100%;writing-mode:lr-tb;text-anchor:middle;font-family:Arial;-inkscape-font-specification:Arial Bold">FORMS</tspan></text><path style="fill:#fca;stroke:#f60;stroke-width:.81249869px;stroke-linecap:butt;stroke-linejoin:miter;stroke-opacity:1" id="path3094" d="m 388.74165,376.18607 65.5272,14.42341 -2.85948,-8.58229 19.83215,16.39025 -23.60467,6.87097 5.03021,-6.32598 -65.02639,-10.94723 z"/><path id="path3096" d="m 464.14054,410.18607 -65.5272,14.42341 2.85948,-8.58229 -19.83215,16.39025 23.60467,6.87097 -5.03021,-6.32598 65.02639,-10.94723 z" style="fill:#dde9af;stroke:#89a02c;stroke-width:.81249868999999986px;stroke-linecap:butt;stroke-linejoin:miter;stroke-opacity:1"/><path id="path3098" d="m 599.01518,422.92946 c 12.13781,19.53389 25.68678,46.52818 2.50126,73.18756 2.66445,1.76313 9.08704,0.18698 12.11959,0.4777 -6.23439,2.95757 -11.57924,5.82703 -23.87304,5.46183 3.86344,-9.29128 4.33945,-11.66067 5.60623,-20.34941 1.7263,3.14433 1.43577,8.71232 2.37544,11.07002 11.13029,-19.35456 16.57259,-38.72029 -5.89596,-61.13876 z" style="fill:#fca;stroke:#f60;stroke-width:.81249869px;stroke-linecap:butt;stroke-linejoin:miter;stroke-opacity:1"/><path style="fill:#dde9af;stroke:#89a02c;stroke-width:.81249869px;stroke-linecap:butt;stroke-linejoin:miter;stroke-opacity:1" id="path3100" d="m 543.28972,475.36228 -1.58418,-19.14245 6.54541,3.15572 -8.74777,-20.80228 -8.79964,20.18723 6.59628,-2.33221 -2.01773,18.41861 z"/><path style="fill:#dde9af;stroke:#89a02c;stroke-width:.81249869px;stroke-linecap:butt;stroke-linejoin:miter;stroke-opacity:1" id="path3102" d="m 399.01238,527.73962 c 20.50061,-15.29522 42.21124,-19.70034 64.74018,-16.74059 l -6.04753,6.72752 24.72608,-7.11162 -18.90001,-15.72197 2.087,7.80804 c -20.37162,-3.47774 -46.79352,1.36663 -73.03566,16.25461 z"/><path id="path3104" d="m 513.29674,539.4429 c -16.84445,19.24794 -37.15186,28.10038 -59.80122,29.92244 l 4.50519,-7.84445 -22.68947,12.13022 21.77249,11.41707 -3.6753,-7.19814 c 20.64828,-0.86393 45.47061,-11.13215 68.01464,-31.18381 z" style="fill:#fca;stroke:#ff6803;stroke-width:.81249868999999986px;stroke-linecap:butt;stroke-linejoin:miter;stroke-opacity:.98431373;fill-opacity:1"/></g></svg>