<?xml version="1.0" encoding="UTF-8" standalone="no"?>
<!-- Created with Inkscape (http://www.inkscape.org/) -->

<svg
   xmlns:dc="http://purl.org/dc/elements/1.1/"
   xmlns:cc="http://creativecommons.org/ns#"
   xmlns:rdf="http://www.w3.org/1999/02/22-rdf-syntax-ns#"
   xmlns:svg="http://www.w3.org/2000/svg"
   xmlns="http://www.w3.org/2000/svg"
   xmlns:xlink="http://www.w3.org/1999/xlink"
   xmlns:sodipodi="http://sodipodi.sourceforge.net/DTD/sodipodi-0.dtd"
   xmlns:inkscape="http://www.inkscape.org/namespaces/inkscape"
   width="850"
   height="450"
   id="svg2"
   version="1.1"
   inkscape:version="0.48.1 r9760"
   sodipodi:docname="design1.svg">
  <defs
     id="defs4">
    <marker
       inkscape:stockid="Arrow1Mend"
       orient="auto"
       refY="0"
       refX="0"
       id="Arrow1Mend"
       style="overflow:visible">
      <path
         id="path4017"
         d="M 0,0 5,-5 -12.5,0 5,5 0,0 z"
         style="fill-rule:evenodd;stroke:#000000;stroke-width:1pt;marker-start:none"
         transform="matrix(-0.4,0,0,-0.4,-4,0)"
         inkscape:connector-curvature="0" />
    </marker>
    <marker
       inkscape:stockid="Arrow1Lend"
       orient="auto"
       refY="0"
       refX="0"
       id="Arrow1Lend"
       style="overflow:visible">
      <path
         id="path4011"
         d="M 0,0 5,-5 -12.5,0 5,5 0,0 z"
         style="fill-rule:evenodd;stroke:#000000;stroke-width:1pt;marker-start:none"
         transform="matrix(-0.8,0,0,-0.8,-10,0)"
         inkscape:connector-curvature="0" />
    </marker>
    <linearGradient
       id="linearGradient3941">
      <stop
         id="stop3943"
         offset="0"
         style="stop-color:#005eb4;stop-opacity:1;" />
      <stop
         id="stop3945"
         offset="1"
         style="stop-color:#92cbff;stop-opacity:1;" />
    </linearGradient>
    <linearGradient
       id="linearGradient3933">
      <stop
         style="stop-color:#740076;stop-opacity:1;"
         offset="0"
         id="stop3935" />
      <stop
         style="stop-color:#fd74ff;stop-opacity:1;"
         offset="1"
         id="stop3937" />
    </linearGradient>
    <linearGradient
       inkscape:collect="always"
       xlink:href="#linearGradient3941"
       id="linearGradient3939"
       x1="273.24161"
       y1="224.76926"
       x2="273.24161"
       y2="44.618904"
       gradientUnits="userSpaceOnUse"
       gradientTransform="translate(266.47722,448.67017)" />
  </defs>
  <sodipodi:namedview
     id="base"
     pagecolor="#ffffff"
     bordercolor="#666666"
     borderopacity="1.0"
     inkscape:pageopacity="0.0"
     inkscape:pageshadow="2"
     inkscape:zoom="0.94910055"
     inkscape:cx="406.16294"
     inkscape:cy="167.6875"
     inkscape:document-units="px"
     inkscape:current-layer="layer1"
     showgrid="false"
     inkscape:window-width="1222"
     inkscape:window-height="756"
     inkscape:window-x="0"
     inkscape:window-y="0"
     inkscape:window-maximized="1"
     fit-margin-top="0"
     fit-margin-left="0"
     fit-margin-right="0"
     fit-margin-bottom="0" />
  <metadata
     id="metadata7">
    <rdf:RDF>
      <cc:Work
         rdf:about="">
        <dc:format>image/svg+xml</dc:format>
        <dc:type
           rdf:resource="http://purl.org/dc/dcmitype/StillImage" />
        <dc:title />
      </cc:Work>
    </rdf:RDF>
  </metadata>
  <g
     inkscape:label="Layer 1"
     inkscape:groupmode="layer"
     id="layer1"
     transform="translate(-116.15133,-354.07642)">
    <rect
       style="fill:url(#linearGradient3939);fill-opacity:1;stroke:#005eb4;stroke-width:1.875;stroke-miterlimit:4;stroke-opacity:1;stroke-dasharray:none"
       id="rect2985"
       width="465.82266"
       height="179.78976"
       x="309.33435"
       y="495.31805"
       ry="20.971447" />
    <text
       xml:space="preserve"
       style="font-size:18.73706436px;font-style:normal;font-variant:normal;font-weight:bold;font-stretch:normal;text-align:start;line-height:125%;letter-spacing:0px;word-spacing:0px;writing-mode:lr-tb;text-anchor:start;fill:#ffffff;fill-opacity:1;stroke:none;font-family:Arial;-inkscape-font-specification:Arial Bold"
       x="497.47986"
       y="519.94586"
       id="text3755"
       sodipodi:linespacing="125%"><tspan
         sodipodi:role="line"
         id="tspan3757"
         x="497.47986"
         y="519.94586">PROJECT</tspan></text>
    <rect
       ry="10.009361"
       y="533.43878"
       x="322.91296"
       height="129.4091"
       width="138.80962"
       id="rect3790"
       style="fill:#ffffff;fill-opacity:0.71980681;stroke:#005eb4;stroke-width:1.90385377;stroke-miterlimit:4;stroke-opacity:1;stroke-dasharray:none" />
    <text
       xml:space="preserve"
       style="font-size:15.40377808px;font-style:normal;font-variant:normal;font-weight:bold;font-stretch:normal;text-align:start;line-height:125%;letter-spacing:0px;word-spacing:0px;writing-mode:lr-tb;text-anchor:start;fill:#000000;fill-opacity:1;stroke:none;font-family:Arial;-inkscape-font-specification:Arial Bold"
       x="343.94781"
       y="554.82294"
       id="text3792"
       sodipodi:linespacing="125%"><tspan
         sodipodi:role="line"
         x="343.94781"
         y="554.82294"
         id="tspan3804">General Files</tspan></text>
    <rect
       style="fill:#ffffff;fill-opacity:0.71980681;stroke:#005eb4;stroke-width:1.90385377;stroke-miterlimit:4;stroke-opacity:1;stroke-dasharray:none"
       id="rect3834"
       width="138.80962"
       height="129.4091"
       x="472.91299"
       y="533.43878"
       ry="10.009361" />
    <text
       sodipodi:linespacing="125%"
       id="text3836"
       y="554.82294"
       x="510.6904"
       style="font-size:15.40377808px;font-style:normal;font-variant:normal;font-weight:bold;font-stretch:normal;text-align:start;line-height:125%;letter-spacing:0px;word-spacing:0px;writing-mode:lr-tb;text-anchor:start;fill:#000000;fill-opacity:1;stroke:none;font-family:Arial;-inkscape-font-specification:Arial Bold"
       xml:space="preserve"><tspan
         id="tspan3838"
         y="554.82294"
         x="510.6904"
         sodipodi:role="line">Services</tspan></text>
    <rect
       style="fill:#ffffff;fill-opacity:0.71980681;stroke:#005eb4;stroke-width:1.90385377;stroke-miterlimit:4;stroke-opacity:1;stroke-dasharray:none"
       id="rect3870"
       width="138.80962"
       height="129.4091"
       x="622.91296"
       y="533.43878"
       ry="10.009361" />
    <text
       sodipodi:linespacing="125%"
       id="text3872"
       y="554.82294"
       x="646.43738"
       style="font-size:15.40377808px;font-style:normal;font-variant:normal;font-weight:bold;font-stretch:normal;text-align:start;line-height:125%;letter-spacing:0px;word-spacing:0px;writing-mode:lr-tb;text-anchor:start;fill:#000000;fill-opacity:1;stroke:none;font-family:Arial;-inkscape-font-specification:Arial Bold"
       xml:space="preserve"><tspan
         id="tspan3874"
         y="554.82294"
         x="646.43738"
         sodipodi:role="line">Applications</tspan></text>
    <path
       style="fill:#ffffff;fill-opacity:0.71980681;stroke:#005eb4;stroke-width:1.5;stroke-miterlimit:4;stroke-opacity:0.66222223;stroke-dasharray:none"
       d="m 482.69597,598.60767 c -2.58593,0.26105 -4.59375,2.43674 -4.59375,5.09375 l 0,8.625 c 0,2.83415 2.29085,5.125 5.125,5.125 l 57.125,0 48.0625,76 -48.25,0 c -4.0237,0 -7.25,3.22629 -7.25,7.25 l 0,79.375 c 0,4.0237 3.2263,7.25 7.25,7.25 l 124.28125,0 c 4.0237,0 7.28125,-3.2263 7.28125,-7.25 l 0,-79.375 c 0,-4.02371 -3.25755,-7.25 -7.28125,-7.25 l -46.25,0 -73.5,-76 56.9375,0 c 2.83415,0 5.125,-2.29085 5.125,-5.125 l 0,-8.625 c 0,-2.83415 -2.29085,-5.09375 -5.125,-5.09375 l -118.40625,0 c -0.17713,0 -0.35885,-0.0174 -0.53125,0 z"
       id="rect3961"
       inkscape:connector-curvature="0"
       sodipodi:nodetypes="csssccssssssssccsssssc" />
    <text
       sodipodi:linespacing="125%"
       id="text3963"
       y="714.82294"
       x="581.7356"
       style="font-size:15.40377808px;font-style:normal;font-variant:normal;font-weight:bold;font-stretch:normal;text-align:start;line-height:125%;letter-spacing:0px;word-spacing:0px;writing-mode:lr-tb;text-anchor:start;fill:#000000;fill-opacity:1;stroke:none;font-family:Arial;-inkscape-font-specification:Arial Bold"
       xml:space="preserve"><tspan
         id="tspan3965"
         y="714.82294"
         x="581.7356"
         sodipodi:role="line">office</tspan></text>
    <text
       xml:space="preserve"
       style="font-size:15.40377808px;font-style:normal;font-variant:normal;font-weight:normal;font-stretch:normal;text-align:start;line-height:125%;letter-spacing:0px;word-spacing:0px;writing-mode:lr-tb;text-anchor:start;fill:#000000;fill-opacity:1;stroke:none;font-family:Arial;-inkscape-font-specification:Arial"
       x="542.77502"
       y="734.82294"
       id="text3967"
       sodipodi:linespacing="125%"><tspan
         sodipodi:role="line"
         x="542.77502"
         y="734.82294"
         id="tspan3973">__init__.py</tspan><tspan
         sodipodi:role="line"
         x="542.77502"
         y="754.07764"
         id="tspan3999">views.py</tspan><tspan
         sodipodi:role="line"
         x="542.77502"
         y="773.3324"
         id="tspan4001">urls.py</tspan></text>
    <path
       style="fill:#ffffff;fill-opacity:0.71980681;stroke:#005eb4;stroke-width:1.5;stroke-miterlimit:4;stroke-opacity:0.66222223;stroke-dasharray:none"
       d="m 816.16472,453.45142 c -4.0237,0 -7.25,3.2263 -7.25,7.25 l 0,64.53125 -52.84375,37.90625 c -0.83857,-1.67503 -2.55498,-2.8125 -4.5625,-2.8125 l -118.375,0 c -2.83415,0 -5.125,2.2596 -5.125,5.09375 l 0,8.96875 c 0,2.83415 2.29085,5.125 5.125,5.125 l 118.375,0 c 2.83415,0 5.09375,-2.29085 5.09375,-5.125 l 0,-6.4375 52.3125,-17.96875 0,30.09375 c 0,4.0237 3.2263,7.25 7.25,7.25 l 124.28125,0 c 4.0237,0 7.28125,-3.2263 7.28125,-7.25 l 0,-119.375 c 0,-4.0237 -3.25755,-7.25 -7.28125,-7.25 z"
       id="rect4663"
       inkscape:connector-curvature="0"
       sodipodi:nodetypes="ssccsssssssccsssssss" />
    <text
       xml:space="preserve"
       style="font-size:15.40377808px;font-style:normal;font-variant:normal;font-weight:bold;font-stretch:normal;text-align:start;line-height:125%;letter-spacing:0px;word-spacing:0px;writing-mode:lr-tb;text-anchor:start;fill:#000000;fill-opacity:1;stroke:none;font-family:Arial;-inkscape-font-specification:Arial Bold"
       x="839.3985"
       y="474.82291"
       id="text4665"
       sodipodi:linespacing="125%"><tspan
         sodipodi:role="line"
         x="839.3985"
         y="474.82291"
         id="tspan4667">customers</tspan></text>
    <text
       sodipodi:linespacing="125%"
       id="text4669"
       y="494.82291"
       x="818.77496"
       style="font-size:15.40377808px;font-style:normal;font-variant:normal;font-weight:normal;font-stretch:normal;text-align:start;line-height:125%;letter-spacing:0px;word-spacing:0px;writing-mode:lr-tb;text-anchor:start;fill:#000000;fill-opacity:1;stroke:none;font-family:Arial;-inkscape-font-specification:Arial"
       xml:space="preserve"><tspan
         id="tspan4671"
         y="494.82291"
         x="818.77496"
         sodipodi:role="line">__init__.py</tspan><tspan
         id="tspan4673"
         y="514.07764"
         x="818.77496"
         sodipodi:role="line">views.py</tspan><tspan
         id="tspan4675"
         y="533.33234"
         x="818.77496"
         sodipodi:role="line">urls.py</tspan><tspan
         y="552.5871"
         x="818.77496"
         sodipodi:role="line"
         id="tspan3861">models.py</tspan><tspan
         y="571.8418"
         x="818.77496"
         sodipodi:role="line"
         id="tspan3863">admin.py</tspan></text>
    <path
       style="fill:#ffffff;fill-opacity:0.71980681;stroke:#005eb4;stroke-width:1.5;stroke-miterlimit:4;stroke-opacity:0.66222223;stroke-dasharray:none"
       d="m 632.60222,600.32642 c -2.58593,0.26105 -4.59375,2.43674 -4.59375,5.09375 l 0,8.96875 c 0,2.83415 2.29085,5.125 5.125,5.125 l 118.375,0 c 1.86123,0 3.48007,-0.99046 4.375,-2.46875 l 41.03125,35.96875 0,107.0625 c 0,4.0237 3.2263,7.25 7.25,7.25 l 124.28125,0 c 4.0237,0 7.28125,-3.2263 7.28125,-7.25 l 0,-139.375 c 0,-4.02371 -3.25755,-7.25 -7.28125,-7.25 l -124.28125,0 c -4.0237,0 -7.25,3.22629 -7.25,7.25 l 0,9.0625 -40.3125,-17.65625 0,-6.6875 c 0,-2.83415 -2.2596,-5.09375 -5.09375,-5.09375 l -118.375,0 c -0.17713,0 -0.35885,-0.0174 -0.53125,0 z"
       id="rect4677"
       inkscape:connector-curvature="0"
       sodipodi:nodetypes="cssssccssssssssccsssc" />
    <text
       sodipodi:linespacing="125%"
       id="text4679"
       y="634.82294"
       x="832.26105"
       style="font-size:15.40377808px;font-style:normal;font-variant:normal;font-weight:bold;font-stretch:normal;text-align:start;line-height:125%;letter-spacing:0px;word-spacing:0px;writing-mode:lr-tb;text-anchor:start;fill:#000000;fill-opacity:1;stroke:none;font-family:Arial;-inkscape-font-specification:Arial Bold"
       xml:space="preserve"><tspan
         id="tspan4681"
         y="634.82294"
         x="832.26105"
         sodipodi:role="line">suppliers</tspan></text>
    <text
       xml:space="preserve"
       style="font-size:15.40377808px;font-style:normal;font-variant:normal;font-weight:normal;font-stretch:normal;text-align:start;line-height:125%;letter-spacing:0px;word-spacing:0px;writing-mode:lr-tb;text-anchor:start;fill:#000000;fill-opacity:1;stroke:none;font-family:Arial;-inkscape-font-specification:Arial"
       x="806.77496"
       y="654.82294"
       id="text4683"
       sodipodi:linespacing="125%"><tspan
         sodipodi:role="line"
         x="806.77496"
         y="654.82294"
         id="tspan4685">__init__.py</tspan><tspan
         sodipodi:role="line"
         x="806.77496"
         y="674.07764"
         id="tspan4687">views.py</tspan><tspan
         sodipodi:role="line"
         x="806.77496"
         y="693.3324"
         id="tspan4689">urls.py</tspan><tspan
         sodipodi:role="line"
         x="806.77496"
         y="712.5871"
         id="tspan3865">models.py</tspan><tspan
         sodipodi:role="line"
         x="806.77496"
         y="731.8418"
         id="tspan3867">admin.py</tspan><tspan
         sodipodi:role="line"
         x="806.77496"
         y="751.09656"
         id="tspan3869">rest.py</tspan></text>
    <path
       sodipodi:nodetypes="ssccsssssssccsssssss"
       inkscape:connector-curvature="0"
       id="path3871"
       d="m 268.46383,490.70142 c 4.0237,0 7.25,3.2263 7.25,7.25 l 0,44.53125 52.84375,77.90625 c 0.83857,-1.67503 2.55498,-2.8125 4.5625,-2.8125 l 118.375,0 c 2.83415,0 5.125,2.2596 5.125,5.09375 l 0,8.96875 c 0,2.83415 -2.29085,5.125 -5.125,5.125 l -118.375,0 c -2.83415,0 -5.09375,-2.29085 -5.09375,-5.125 l 0,-6.4375 -52.3125,-57.96875 0,10.09375 c 0,4.0237 -3.2263,7.25 -7.25,7.25 l -124.28125,0 c -4.0237,0 -7.28125,-3.2263 -7.28125,-7.25 l 0,-79.375 c 0,-4.0237 3.25755,-7.25 7.28125,-7.25 z"
       style="fill:#ffffff;fill-opacity:0.71980681;stroke:#005eb4;stroke-width:1.5;stroke-miterlimit:4;stroke-opacity:0.66222223;stroke-dasharray:none" />
    <path
       style="fill:#ffffff;fill-opacity:0.71980681;stroke:#005eb4;stroke-width:1.5;stroke-miterlimit:4;stroke-opacity:0.66222223;stroke-dasharray:none"
       d="m 268.46383,612.70142 c 4.0237,0 7.25,3.2263 7.25,7.25 l 0,64.53125 52.84375,-42.09375 c 0.83857,-1.67503 2.55498,-2.8125 4.5625,-2.8125 l 118.375,0 c 2.83415,0 5.125,2.2596 5.125,5.09375 l 0,8.96875 c 0,2.83415 -2.29085,5.125 -5.125,5.125 l -118.375,0 c -2.83415,0 -5.09375,-2.29085 -5.09375,-5.125 l 0,-6.4375 -52.3125,62.03125 0,30.09375 c 0,4.0237 -3.2263,7.25 -7.25,7.25 l -124.28125,0 c -4.0237,0 -7.28125,-3.2263 -7.28125,-7.25 l 0,-119.375 c 0,-4.0237 3.25755,-7.25 7.28125,-7.25 z"
       id="path3889"
       inkscape:connector-curvature="0"
       sodipodi:nodetypes="ssccsssssssccsssssss" />
    <path
       style="fill:#ffffff;fill-opacity:0.71980681;stroke:#005eb4;stroke-width:1.5;stroke-miterlimit:4;stroke-opacity:0.66222223;stroke-dasharray:none"
       d="m 484.25847,579.32642 c -3.69593,0 -6.6875,-2.96032 -6.6875,-6.65625 l 0,-6.15625 c 0,-1.64879 0.60964,-3.15069 1.59375,-4.3125 l -52.46875,-96.03125 -86.5625,0 c -4.0237,0 -7.25,-3.22629 -7.25,-7.25 l 0,-79.375 c 0,-4.0237 3.2263,-7.25 7.25,-7.25 l 124.28125,0 c 4.0237,0 7.28125,3.2263 7.28125,7.25 l 0,79.375 c 0,4.02371 -3.25755,7.25 -7.28125,7.25 l -6.90625,0 23.84375,94.3125 c 0.87369,-0.4186 1.86934,-0.625 2.90625,-0.625 l 115.75,0 c 3.69593,0 6.6875,2.96032 6.6875,6.65625 l 0,6.15625 c 0,3.69593 -2.99157,6.65625 -6.6875,6.65625 z"
       id="rect4661"
       inkscape:connector-curvature="0"
       sodipodi:nodetypes="sssccssssssssccssssss" />
    <text
       xml:space="preserve"
       style="font-size:15.40377808px;font-style:normal;font-variant:normal;font-weight:bold;font-stretch:normal;text-align:start;line-height:125%;letter-spacing:0px;word-spacing:0px;writing-mode:lr-tb;text-anchor:start;fill:#000000;fill-opacity:1;stroke:none;font-family:Arial;-inkscape-font-specification:Arial Bold"
       x="379.30991"
       y="392.82294"
       id="text3949"
       sodipodi:linespacing="125%"><tspan
         sodipodi:role="line"
         x="379.30991"
         y="392.82294"
         id="tspan3951">public</tspan></text>
    <text
       sodipodi:linespacing="125%"
       id="text3953"
       y="412.82294"
       x="342.77499"
       style="font-size:15.40377808px;font-style:normal;font-variant:normal;font-weight:normal;font-stretch:normal;text-align:start;line-height:125%;letter-spacing:0px;word-spacing:0px;writing-mode:lr-tb;text-anchor:start;fill:#000000;fill-opacity:1;stroke:none;font-family:Arial;-inkscape-font-specification:Arial"
       xml:space="preserve"><tspan
         id="tspan3959"
         y="412.82294"
         x="342.77499"
         sodipodi:role="line">__init__.py</tspan><tspan
         y="432.07767"
         x="342.77499"
         sodipodi:role="line"
         id="tspan3986">views.py</tspan><tspan
         y="451.3324"
         x="342.77499"
         sodipodi:role="line"
         id="tspan3992">urls.py</tspan></text>
    <text
       xml:space="preserve"
       style="font-size:15.40377808px;font-style:normal;font-variant:normal;font-weight:normal;font-stretch:normal;text-align:start;line-height:125%;letter-spacing:0px;word-spacing:0px;writing-mode:lr-tb;text-anchor:start;fill:#000000;fill-opacity:1;stroke:none;font-family:Arial;-inkscape-font-specification:Arial"
       x="482.77499"
       y="574.82294"
       id="text3840"
       sodipodi:linespacing="125%"><tspan
         sodipodi:role="line"
         x="482.77499"
         y="574.82294"
         id="tspan3850">public</tspan><tspan
         sodipodi:role="line"
         x="482.77499"
         y="594.07764"
         id="tspan3868">api</tspan><tspan
         sodipodi:role="line"
         x="482.77499"
         y="613.3324"
         id="tspan3847">office</tspan></text>
    <text
       xml:space="preserve"
       style="font-size:15.40377808px;font-style:normal;font-variant:normal;font-weight:normal;font-stretch:normal;text-align:start;line-height:125%;letter-spacing:0px;word-spacing:0px;writing-mode:lr-tb;text-anchor:start;fill:#000000;fill-opacity:1;stroke:none;font-family:Arial;-inkscape-font-specification:Arial"
       x="632.77496"
       y="574.82294"
       id="text3876"
       sodipodi:linespacing="125%"><tspan
         sodipodi:role="line"
         x="632.77496"
         y="574.82294"
         id="tspan3886">customers</tspan><tspan
         sodipodi:role="line"
         x="632.77496"
         y="594.07764"
         id="tspan3902">orders</tspan><tspan
         sodipodi:role="line"
         x="632.77496"
         y="613.3324"
         id="tspan3906">suppliers</tspan><tspan
         sodipodi:role="line"
         x="632.77496"
         y="632.5871"
         id="tspan3910">purchases</tspan><tspan
         sodipodi:role="line"
         x="632.77496"
         y="651.8418"
         id="tspan3912">delivery</tspan></text>
    <text
       sodipodi:linespacing="125%"
       id="text3873"
       y="512.07288"
       x="171.39133"
       style="font-size:15.40377808px;font-style:normal;font-variant:normal;font-weight:bold;font-stretch:normal;text-align:start;line-height:125%;letter-spacing:0px;word-spacing:0px;writing-mode:lr-tb;text-anchor:start;fill:#000000;fill-opacity:1;stroke:none;font-family:Arial;-inkscape-font-specification:Arial Bold"
       xml:space="preserve"><tspan
         id="tspan3875"
         y="512.07288"
         x="171.39133"
         sodipodi:role="line">templates</tspan></text>
    <text
       xml:space="preserve"
       style="font-size:15.40377808px;font-style:normal;font-variant:normal;font-weight:normal;font-stretch:normal;text-align:start;line-height:125%;letter-spacing:0px;word-spacing:0px;writing-mode:lr-tb;text-anchor:start;fill:#000000;fill-opacity:1;stroke:none;font-family:Arial;-inkscape-font-specification:Arial"
       x="145.67026"
       y="532.07288"
       id="text3877"
       sodipodi:linespacing="125%"><tspan
         id="tspan3887"
         sodipodi:role="line"
         x="145.67026"
         y="532.07288">base.html</tspan><tspan
         sodipodi:role="line"
         x="145.67026"
         y="551.32758"
         id="tspan3922">home.html</tspan><tspan
         sodipodi:role="line"
         x="145.67026"
         y="570.58234"
         id="tspan3924">contact_form.html</tspan></text>
    <text
       sodipodi:linespacing="125%"
       id="text3808"
       y="574.82294"
       x="332.77499"
       style="font-size:15.40377808px;font-style:normal;font-variant:normal;font-weight:normal;font-stretch:normal;text-align:start;line-height:125%;letter-spacing:0px;word-spacing:0px;writing-mode:lr-tb;text-anchor:start;fill:#000000;fill-opacity:1;stroke:none;font-family:Arial;-inkscape-font-specification:Arial"
       xml:space="preserve"><tspan
         id="tspan3810"
         y="574.82294"
         x="332.77499"
         sodipodi:role="line">__init__.py</tspan><tspan
         id="tspan3812"
         y="594.07764"
         x="332.77499"
         sodipodi:role="line">settings.py</tspan><tspan
         id="tspan3814"
         y="613.3324"
         x="332.77499"
         sodipodi:role="line">views.py</tspan><tspan
         id="tspan3816"
         y="632.5871"
         x="332.77499"
         sodipodi:role="line">templates</tspan><tspan
         id="tspan3818"
         y="651.8418"
         x="332.77499"
         sodipodi:role="line">static</tspan></text>
    <text
       xml:space="preserve"
       style="font-size:15.40377808px;font-style:normal;font-variant:normal;font-weight:bold;font-stretch:normal;text-align:start;line-height:125%;letter-spacing:0px;word-spacing:0px;writing-mode:lr-tb;text-anchor:start;fill:#000000;fill-opacity:1;stroke:none;font-family:Arial;-inkscape-font-specification:Arial Bold"
       x="186.99066"
       y="634.07288"
       id="text3891"
       sodipodi:linespacing="125%"><tspan
         sodipodi:role="line"
         x="186.99066"
         y="634.07288"
         id="tspan3893">static</tspan></text>
    <text
       sodipodi:linespacing="125%"
       id="text3895"
       y="654.07288"
       x="145.67026"
       style="font-size:15.40377808px;font-style:normal;font-variant:normal;font-weight:normal;font-stretch:normal;text-align:start;line-height:125%;letter-spacing:0px;word-spacing:0px;writing-mode:lr-tb;text-anchor:start;fill:#000000;fill-opacity:1;stroke:none;font-family:Arial;-inkscape-font-specification:Arial"
       xml:space="preserve"><tspan
         y="654.07288"
         x="145.67026"
         sodipodi:role="line"
         id="tspan3905">all.css</tspan><tspan
         y="673.32758"
         x="145.67026"
         sodipodi:role="line"
         id="tspan3940">basic.js</tspan><tspan
         y="692.58234"
         x="145.67026"
         sodipodi:role="line"
         id="tspan3942">jquery.js</tspan><tspan
         y="711.83704"
         x="145.67026"
         sodipodi:role="line"
         id="tspan3944">logo.png</tspan><tspan
         y="731.0918"
         x="145.67026"
         sodipodi:role="line"
         id="tspan3946">front.jpg</tspan></text>
  </g>
</svg>
