<?xml version="1.0" encoding="UTF-8" standalone="no"?>
<!-- Created with Inkscape (http://www.inkscape.org/) -->

<svg
   xmlns:dc="http://purl.org/dc/elements/1.1/"
   xmlns:cc="http://creativecommons.org/ns#"
   xmlns:rdf="http://www.w3.org/1999/02/22-rdf-syntax-ns#"
   xmlns:svg="http://www.w3.org/2000/svg"
   xmlns="http://www.w3.org/2000/svg"
   xmlns:xlink="http://www.w3.org/1999/xlink"
   xmlns:sodipodi="http://sodipodi.sourceforge.net/DTD/sodipodi-0.dtd"
   xmlns:inkscape="http://www.inkscape.org/namespaces/inkscape"
   width="480"
   height="450"
   id="svg2"
   version="1.1"
   inkscape:version="0.48.1 r9760"
   sodipodi:docname="design-mvc.svg">
  <defs
     id="defs4">
    <linearGradient
       id="linearGradient4130">
      <stop
         style="stop-color:#ffff00;stop-opacity:1;"
         offset="0"
         id="stop4132" />
      <stop
         style="stop-color:#ffffb5;stop-opacity:1;"
         offset="1"
         id="stop4134" />
    </linearGradient>
    <linearGradient
       id="linearGradient4122">
      <stop
         style="stop-color:#ffff00;stop-opacity:1;"
         offset="0"
         id="stop4124" />
      <stop
         style="stop-color:#ffffdc;stop-opacity:1;"
         offset="1"
         id="stop4126" />
    </linearGradient>
    <inkscape:perspective
       sodipodi:type="inkscape:persp3d"
       inkscape:vp_x="64.271378 : 260.82339 : 1"
       inkscape:vp_y="0 : 1000 : 0"
       inkscape:vp_z="643.48869 : 381.99074 : 1"
       inkscape:persp3d-origin="425 : 150 : 1"
       id="perspective4048" />
    <linearGradient
       id="linearGradient3907">
      <stop
         style="stop-color:#55ff55;stop-opacity:1;"
         offset="0"
         id="stop3909" />
      <stop
         style="stop-color:#00a800;stop-opacity:0;"
         offset="1"
         id="stop3911" />
    </linearGradient>
    <linearGradient
       id="linearGradient3891">
      <stop
         style="stop-color:#ff7474;stop-opacity:1;"
         offset="0"
         id="stop3893" />
      <stop
         style="stop-color:#ff0000;stop-opacity:0;"
         offset="1"
         id="stop3895" />
    </linearGradient>
    <linearGradient
       inkscape:collect="always"
       id="linearGradient3883">
      <stop
         style="stop-color:#83c0f7;stop-opacity:1;"
         offset="0"
         id="stop3885" />
      <stop
         style="stop-color:#83c0f7;stop-opacity:0;"
         offset="1"
         id="stop3887" />
    </linearGradient>
    <marker
       inkscape:stockid="Arrow1Mend"
       orient="auto"
       refY="0"
       refX="0"
       id="Arrow1Mend"
       style="overflow:visible">
      <path
         id="path4017"
         d="M 0,0 5,-5 -12.5,0 5,5 0,0 z"
         style="fill-rule:evenodd;stroke:#000000;stroke-width:1pt;marker-start:none"
         transform="matrix(-0.4,0,0,-0.4,-4,0)"
         inkscape:connector-curvature="0" />
    </marker>
    <marker
       inkscape:stockid="Arrow1Lend"
       orient="auto"
       refY="0"
       refX="0"
       id="Arrow1Lend"
       style="overflow:visible">
      <path
         id="path4011"
         d="M 0,0 5,-5 -12.5,0 5,5 0,0 z"
         style="fill-rule:evenodd;stroke:#000000;stroke-width:1pt;marker-start:none"
         transform="matrix(-0.8,0,0,-0.8,-10,0)"
         inkscape:connector-curvature="0" />
    </marker>
    <linearGradient
       id="linearGradient3941">
      <stop
         id="stop3943"
         offset="0"
         style="stop-color:#005eb4;stop-opacity:1;" />
      <stop
         id="stop3945"
         offset="1"
         style="stop-color:#92cbff;stop-opacity:1;" />
    </linearGradient>
    <linearGradient
       id="linearGradient3933">
      <stop
         style="stop-color:#740076;stop-opacity:1;"
         offset="0"
         id="stop3935" />
      <stop
         style="stop-color:#fd74ff;stop-opacity:1;"
         offset="1"
         id="stop3937" />
    </linearGradient>
    <linearGradient
       inkscape:collect="always"
       xlink:href="#linearGradient3883"
       id="linearGradient3889"
       x1="133.06091"
       y1="146.02798"
       x2="344.23309"
       y2="146.02798"
       gradientUnits="userSpaceOnUse" />
    <linearGradient
       inkscape:collect="always"
       xlink:href="#linearGradient3891"
       id="linearGradient3897"
       x1="133.06091"
       y1="146.02798"
       x2="344.23309"
       y2="146.02798"
       gradientUnits="userSpaceOnUse" />
    <linearGradient
       inkscape:collect="always"
       xlink:href="#linearGradient3907"
       id="linearGradient3913"
       x1="133.06091"
       y1="146.02798"
       x2="344.23309"
       y2="146.02798"
       gradientUnits="userSpaceOnUse" />
    <linearGradient
       inkscape:collect="always"
       xlink:href="#linearGradient4122"
       id="linearGradient4178"
       gradientUnits="userSpaceOnUse"
       gradientTransform="translate(136.15133,314.07642)"
       x1="68.65625"
       y1="295.51562"
       x2="158.65625"
       y2="295.51562" />
    <radialGradient
       inkscape:collect="always"
       xlink:href="#linearGradient4130"
       id="radialGradient4180"
       gradientUnits="userSpaceOnUse"
       gradientTransform="matrix(1,0,0,0.46158403,20,279.85675)"
       cx="229.8186"
       cy="594.06995"
       fx="229.8186"
       fy="594.06995"
       r="45.00433" />
  </defs>
  <sodipodi:namedview
     id="base"
     pagecolor="#ffffff"
     bordercolor="#666666"
     borderopacity="1.0"
     inkscape:pageopacity="0.0"
     inkscape:pageshadow="2"
     inkscape:zoom="1.1955556"
     inkscape:cx="240"
     inkscape:cy="225"
     inkscape:document-units="px"
     inkscape:current-layer="layer1"
     showgrid="false"
     inkscape:window-width="1224"
     inkscape:window-height="756"
     inkscape:window-x="0"
     inkscape:window-y="0"
     inkscape:window-maximized="0"
     fit-margin-top="5"
     fit-margin-left="0"
     fit-margin-right="0"
     fit-margin-bottom="0" />
  <metadata
     id="metadata7">
    <rdf:RDF>
      <cc:Work
         rdf:about="">
        <dc:format>image/svg+xml</dc:format>
        <dc:type
           rdf:resource="http://purl.org/dc/dcmitype/StillImage" />
        <dc:title></dc:title>
      </cc:Work>
    </rdf:RDF>
  </metadata>
  <g
     inkscape:label="Layer 1"
     inkscape:groupmode="layer"
     id="layer1"
     transform="translate(-188.12738,-344.5561)">
    <path
       sodipodi:type="arc"
       style="opacity:0.9;fill:url(#linearGradient3897);fill-opacity:1;stroke:#ff0000;stroke-width:1.5;stroke-miterlimit:4;stroke-opacity:0.58823529;stroke-dasharray:none"
       id="path3097"
       sodipodi:cx="238.647"
       sodipodi:cy="146.02798"
       sodipodi:rx="104.8361"
       sodipodi:ry="104.8361"
       d="m 343.4831,146.02798 a 104.8361,104.8361 0 1 1 -209.67219,0 104.8361,104.8361 0 1 1 209.67219,0 z"
       transform="matrix(0.8660254,0.5,-0.5,0.8660254,235.13796,242.31696)" />
    <path
       transform="matrix(-0.8660254,0.5,-0.5,-0.8660254,828.48669,495.24485)"
       d="m 343.4831,146.02798 a 104.8361,104.8361 0 1 1 -209.67219,0 104.8361,104.8361 0 1 1 209.67219,0 z"
       sodipodi:ry="104.8361"
       sodipodi:rx="104.8361"
       sodipodi:cy="146.02798"
       sodipodi:cx="238.647"
       id="path3099"
       style="opacity:0.9;fill:url(#linearGradient3889);fill-opacity:1;stroke:#005eb4;stroke-width:1.5;stroke-miterlimit:4;stroke-opacity:1;stroke-dasharray:none"
       sodipodi:type="arc" />
    <path
       sodipodi:type="arc"
       style="opacity:0.9;fill:url(#linearGradient3913);fill-opacity:1;stroke:#00a800;stroke-width:1.5;stroke-miterlimit:4;stroke-opacity:1;stroke-dasharray:none"
       id="path3101"
       sodipodi:cx="238.647"
       sodipodi:cy="146.02798"
       sodipodi:rx="104.8361"
       sodipodi:ry="104.8361"
       d="m 343.4831,146.02798 a 104.8361,104.8361 0 1 1 -209.67219,0 104.8361,104.8361 0 1 1 209.67219,0 z"
       transform="matrix(0,-1,1,0,312.77035,886.75141)" />
    <path
       sodipodi:type="arc"
       style="opacity:0.3;fill:#ffffff;stroke:none"
       id="path3943"
       sodipodi:cx="238.647"
       sodipodi:cy="146.02798"
       sodipodi:rx="104.8361"
       sodipodi:ry="104.8361"
       d="m 343.4831,146.02798 a 104.8361,104.8361 0 1 1 -209.67219,0 104.8361,104.8361 0 1 1 209.67219,0 z"
       transform="matrix(0.28205967,-1.052661,1.052661,0.28205967,327.76767,698.1302)" />
    <path
       transform="matrix(-0.94379004,-0.54489744,0.54489744,-0.94379004,514.46072,755.96231)"
       d="m 343.4831,146.02798 a 104.8361,104.8361 0 1 1 -209.67219,0 104.8361,104.8361 0 1 1 209.67219,0 z"
       sodipodi:ry="104.8361"
       sodipodi:rx="104.8361"
       sodipodi:cy="146.02798"
       sodipodi:cx="238.647"
       id="path3934"
       style="opacity:0.3;fill:#ffffff;fill-opacity:1;stroke:none"
       sodipodi:type="arc" />
    <path
       transform="matrix(-0.77060133,0.77060134,0.77060134,0.77060133,530.17067,351.67334)"
       d="m 343.4831,146.02798 a 104.8361,104.8361 0 1 1 -209.67219,0 104.8361,104.8361 0 1 1 209.67219,0 z"
       sodipodi:ry="104.8361"
       sodipodi:rx="104.8361"
       sodipodi:cy="146.02798"
       sodipodi:cx="238.647"
       id="path3948"
       style="opacity:0.3;fill:#ffffff;stroke:none"
       sodipodi:type="arc" />
    <text
       xml:space="preserve"
       style="font-size:27.18964958px;font-style:normal;font-weight:normal;line-height:125%;letter-spacing:0px;word-spacing:0px;fill:#000000;fill-opacity:1;stroke:none;font-family:Sans"
       id="text3915"
       sodipodi:linespacing="125%"><textPath
         xlink:href="#path3934"
         id="textPath3938"><tspan
   style="font-style:normal;font-variant:normal;font-weight:bold;font-stretch:normal;font-family:Arial;-inkscape-font-specification:Arial Bold"
   id="tspan3917">MODEL</tspan></textPath></text>
    <text
       sodipodi:linespacing="125%"
       id="text3919"
       style="font-size:27.18964958px;font-style:normal;font-weight:normal;line-height:125%;letter-spacing:0px;word-spacing:0px;fill:#000000;fill-opacity:1;stroke:none;font-family:Sans"
       xml:space="preserve"><textPath
         xlink:href="#path3943"
         id="textPath3945"><tspan
   id="tspan3921"
   style="font-style:normal;font-variant:normal;font-weight:bold;font-stretch:normal;font-family:Arial;-inkscape-font-specification:Arial Bold">VIEW</tspan></textPath></text>
    <g
       style="font-size:27.18964958px;font-style:normal;font-weight:normal;line-height:125%;letter-spacing:0px;word-spacing:0px;fill:#000000;fill-opacity:1;stroke:none;font-family:Sans"
       id="text3923">
      <path
         d="m 380.4887,748.32613 2.13474,3.37944 c -1.81569,1.24769 -3.57832,1.8282 -5.28789,1.74154 -1.69712,-0.0877 -3.34422,-0.80471 -4.94133,-2.15091 -1.97609,-1.66566 -3.03269,-3.70804 -3.16981,-6.12715 -0.13142,-2.42589 0.78971,-4.80959 2.76339,-7.15112 2.08776,-2.47686 4.34729,-3.85975 6.77861,-4.14867 2.43699,-0.29567 4.69767,0.43495 6.78205,2.19186 1.82042,1.53445 2.8456,3.31884 3.07557,5.35318 0.14052,1.20656 -0.122,2.54798 -0.78756,4.02426 l -3.57323,-1.79645 c 0.47432,-0.91979 0.61888,-1.83974 0.43369,-2.75985 -0.17847,-0.9144 -0.66697,-1.70815 -1.4655,-2.38126 -1.10311,-0.92979 -2.33349,-1.28971 -3.69115,-1.07976 -1.35092,0.21566 -2.77364,1.21002 -4.26814,2.98307 -1.5858,1.88135 -2.37688,3.5065 -2.37323,4.87549 0.004,1.36898 0.54684,2.50981 1.62963,3.4225 0.79855,0.67309 1.69935,0.9983 2.70241,0.97561 1.00304,-0.0227 2.08895,-0.47329 3.25775,-1.35178"
         style="font-variant:normal;font-weight:bold;font-stretch:normal;font-family:Arial;-inkscape-font-specification:Arial Bold"
         id="path4191"
         inkscape:connector-curvature="0" />
      <path
         d="m 388.60781,751.55416 c 0.98773,-1.719 2.0738,-3.01402 3.25823,-3.88506 0.87756,-0.63902 1.84256,-1.11042 2.895,-1.41421 1.06008,-0.29936 2.08016,-0.38695 3.06022,-0.26277 1.3071,0.15902 2.64749,0.63317 4.02118,1.42247 2.4864,1.4287 4.03085,3.34202 4.63334,5.73996 0.61012,2.40237 0.12589,4.97722 -1.4527,7.72457 -1.56541,2.72432 -3.53181,4.43221 -5.89922,5.12368 -2.36303,0.68379 -4.78391,0.31354 -7.26265,-1.11073 -2.50946,-1.44192 -4.06599,-3.35198 -4.6696,-5.73017 -0.59921,-2.38587 -0.12714,-4.92178 1.4162,-7.60774 m 3.57707,1.90225 c -1.09799,1.91087 -1.49012,3.61483 -1.17642,5.11189 0.3181,1.48939 1.15632,2.62433 2.51465,3.40481 1.35831,0.78049 2.75107,0.93256 4.17827,0.45623 1.43926,-0.47961 2.72111,-1.69787 3.84556,-3.65478 1.11118,-1.93388 1.51426,-3.62135 1.20923,-5.06241 -0.29739,-1.43663 -1.14827,-2.55843 -2.55262,-3.36538 -1.40438,-0.80693 -2.81412,-0.97387 -4.22921,-0.5008 -1.41071,0.46541 -2.67386,1.66889 -3.78946,3.61044"
         style="font-variant:normal;font-weight:bold;font-stretch:normal;font-family:Arial;-inkscape-font-specification:Arial Bold"
         id="path4193"
         inkscape:connector-curvature="0" />
      <path
         d="m 406.35924,771.96894 6.52486,-18.3366 3.60228,1.28183 3.14742,14.91572 4.35733,-12.24524 3.43967,1.22396 -6.52486,18.3366 -3.71485,-1.32188 -3.13722,-14.58799 -4.25495,11.95757 -3.43968,-1.22397"
         style="font-variant:normal;font-weight:bold;font-stretch:normal;font-family:Arial;-inkscape-font-specification:Arial Bold"
         id="path4195"
         inkscape:connector-curvature="0" />
      <path
         d="m 432.35362,779.75032 2.94542,-15.89989 -5.67853,-1.05194 0.59972,-3.23742 15.20803,2.81726 -0.59973,3.23741 -5.66548,-1.04951 -2.94542,15.89989 -3.86401,-0.7158"
         style="font-variant:normal;font-weight:bold;font-stretch:normal;font-family:Arial;-inkscape-font-specification:Arial Bold"
         id="path4197"
         inkscape:connector-curvature="0" />
      <path
         d="m 447.54328,782.11201 0.49399,-19.45664 8.2684,0.20993 c 2.07926,0.0528 3.58334,0.26807 4.51225,0.64578 0.93795,0.36913 1.67872,1.00769 2.22232,1.91569 0.54356,0.90804 0.80075,1.93716 0.77156,3.08738 -0.0371,1.45992 -0.49687,2.65677 -1.37936,3.59055 -0.88231,0.92495 -2.18042,1.48961 -3.89435,1.69399 0.83681,0.51706 1.52198,1.07895 2.05552,1.68568 0.54235,0.60698 1.26327,1.67886 2.16276,3.21567 l 2.2793,3.85608 -4.69826,-0.11928 -2.7327,-4.30585 c -0.97026,-1.53861 -1.63625,-2.50728 -1.99797,-2.90603 -0.36152,-0.40759 -0.7484,-0.68745 -1.16065,-0.83958 -0.41204,-0.16096 -1.0693,-0.25291 -1.97179,-0.27583 l -0.79631,-0.0202 -0.20622,8.12242 -3.92849,-0.0997 m 4.21356,-11.12831 2.90655,0.0738 c 1.8846,0.0479 3.0634,-0.002 3.53639,-0.14926 0.47297,-0.14735 0.84713,-0.41231 1.12246,-0.79489 0.27531,-0.38256 0.42039,-0.86583 0.43523,-1.44981 0.0166,-0.65473 -0.14699,-1.18568 -0.49078,-1.59283 -0.33475,-0.41576 -0.8193,-0.68481 -1.45364,-0.80718 -0.31742,-0.0523 -1.27243,-0.0987 -2.86505,-0.13914 l -3.06581,-0.0778 -0.12535,4.93715"
         style="font-variant:normal;font-weight:bold;font-stretch:normal;font-family:Arial;-inkscape-font-specification:Arial Bold"
         id="path4199"
         inkscape:connector-curvature="0" />
      <path
         d="m 468.50314,772.71905 c -0.30057,-1.95965 -0.25976,-3.64931 0.12242,-5.069 0.28714,-1.04691 0.74719,-2.01738 1.38013,-2.91141 0.6417,-0.89533 1.38424,-1.60021 2.22764,-2.11462 1.12071,-0.69122 2.46406,-1.15694 4.03004,-1.39715 2.8345,-0.43473 5.23521,0.0969 7.20214,1.59506 1.97565,1.49681 3.20367,3.81118 3.68407,6.94312 0.47633,3.10573 0.005,5.66729 -1.4136,7.68471 -1.4201,2.00867 -3.54303,3.22971 -6.36878,3.66313 -2.86076,0.43878 -5.26888,-0.0828 -7.22436,-1.5648 -1.95683,-1.49071 -3.17006,-3.76706 -3.6397,-6.82904 m 3.9823,-0.74512 c 0.33412,2.17839 1.09076,3.75469 2.26994,4.72893 1.17783,0.9655 2.54098,1.3295 4.08947,1.09199 1.54847,-0.2375 2.7318,-0.9876 3.54998,-2.25029 0.82555,-1.27277 1.06726,-3.02459 0.7251,-5.25546 -0.33815,-2.20461 -1.07596,-3.77485 -2.21342,-4.71074 -1.12873,-0.93719 -2.49358,-1.28302 -4.09454,-1.03748 -1.60098,0.24558 -2.80685,0.99465 -3.6176,2.24723 -0.81211,1.24386 -1.04841,2.97247 -0.70893,5.18582"
         style="font-variant:normal;font-weight:bold;font-stretch:normal;font-family:Arial;-inkscape-font-specification:Arial Bold"
         id="path4201"
         inkscape:connector-curvature="0" />
      <path
         d="m 494.87319,777.58779 -6.02484,-18.3393 3.73345,-1.22651 5.00136,15.22389 9.28316,-3.04971 1.02348,3.11541 -13.01661,4.27622"
         style="font-variant:normal;font-weight:bold;font-stretch:normal;font-family:Arial;-inkscape-font-specification:Arial Bold"
         id="path4203"
         inkscape:connector-curvature="0" />
      <path
         d="m 513.28073,770.99456 -8.63487,-17.26463 3.51467,-1.75785 7.16801,14.33178 8.73919,-4.37089 1.46686,2.93285 -12.25386,6.12874"
         style="font-variant:normal;font-weight:bold;font-stretch:normal;font-family:Arial;-inkscape-font-specification:Arial Bold"
         id="path4205"
         inkscape:connector-curvature="0" />
      <path
         d="m 530.5789,761.80468 -11.25982,-15.87517 11.77102,-8.34886 1.9048,2.68557 -8.56566,6.07539 2.49621,3.51939 7.97007,-5.65295 1.89712,2.67474 -7.97008,5.65295 3.06458,4.32073 8.86887,-6.29044 1.89712,2.67474 -12.07423,8.56391"
         style="font-variant:normal;font-weight:bold;font-stretch:normal;font-family:Arial;-inkscape-font-specification:Arial Bold"
         id="path4207"
         inkscape:connector-curvature="0" />
      <path
         d="m 547.77434,748.93969 -13.70626,-13.81821 5.87227,-5.8247 c 1.47671,-1.46472 2.67277,-2.40176 3.58817,-2.81112 0.91546,-0.42183 1.88904,-0.51488 2.92073,-0.27914 1.0317,0.23578 1.95269,0.76211 2.76297,1.57899 1.02843,1.03686 1.57446,2.1969 1.63809,3.48014 0.0574,1.27699 -0.43305,2.60492 -1.4713,3.98381 0.95229,-0.24645 1.83204,-0.35239 2.63925,-0.31783 0.81349,0.0283 2.08619,0.24945 3.81812,0.66328 l 4.36116,1.02223 -3.33673,3.3097 -4.99959,-1.00605 c -1.7822,-0.36397 -2.94238,-0.55332 -3.48055,-0.56804 -0.54441,-0.021 -1.01414,0.0647 -1.40921,0.25713 -0.4013,0.18613 -0.92243,0.59708 -1.56339,1.23283 l -0.56554,0.56096 5.72185,5.76859 -2.79004,2.76743 m -5.11958,-10.74165 2.06425,-2.04753 c 1.33846,-1.3276 2.11812,-2.21314 2.33897,-2.65661 0.22085,-0.44344 0.28841,-0.89691 0.20268,-1.3604 -0.0857,-0.46346 -0.33429,-0.90257 -0.74567,-1.31732 -0.46123,-0.46499 -0.95777,-0.71422 -1.48961,-0.74769 -0.53178,-0.046 -1.06129,0.11774 -1.58853,0.49109 -0.25738,0.19298 -0.95162,0.85043 -2.08272,1.97234 l -2.17736,2.15972 3.47799,3.5064"
         style="font-variant:normal;font-weight:bold;font-stretch:normal;font-family:Arial;-inkscape-font-specification:Arial Bold"
         id="path4209"
         inkscape:connector-curvature="0" />
    </g>
    <text
       xml:space="preserve"
       style="font-size:19.57970238px;font-style:normal;font-variant:normal;font-weight:normal;font-stretch:normal;text-align:center;line-height:100%;letter-spacing:0px;word-spacing:0px;writing-mode:lr-tb;text-anchor:middle;fill:#000000;fill-opacity:1;stroke:none;font-family:Arial;-inkscape-font-specification:Arial"
       x="363.47397"
       y="445.33847"
       id="text3988"
       sodipodi:linespacing="100%"><tspan
         sodipodi:role="line"
         id="tspan3990"
         x="363.47397"
         y="445.33847"
         style="font-size:19.57970238px;font-style:normal;font-variant:normal;font-weight:normal;font-stretch:normal;text-align:center;line-height:100%;writing-mode:lr-tb;text-anchor:middle;font-family:Arial;-inkscape-font-specification:Arial">Model</tspan><tspan
         sodipodi:role="line"
         x="363.47397"
         y="464.91818"
         style="font-size:19.57970238px;font-style:normal;font-variant:normal;font-weight:normal;font-stretch:normal;text-align:center;line-height:100%;writing-mode:lr-tb;text-anchor:middle;font-family:Arial;-inkscape-font-specification:Arial"
         id="tspan3993">Classes</tspan></text>
    <text
       sodipodi:linespacing="100%"
       id="text3995"
       y="547.3385"
       x="457.47397"
       style="font-size:19.57970238px;font-style:normal;font-weight:normal;text-align:center;line-height:100%;letter-spacing:0px;word-spacing:0px;text-anchor:middle;fill:#000000;fill-opacity:1;stroke:none;font-family:Arial;-inkscape-font-specification:Arial;font-stretch:normal;font-variant:normal;writing-mode:lr"
       xml:space="preserve"><tspan
         id="tspan4000"
         style="text-align:center;text-anchor:middle;font-family:Arial;-inkscape-font-specification:Arial;font-weight:normal;font-style:normal;font-stretch:normal;font-variant:normal;font-size:19.57970238px;writing-mode:lr;line-height:100%"
         y="547.3385"
         x="457.47397"
         sodipodi:role="line">Signals</tspan></text>
    <text
       xml:space="preserve"
       style="font-size:19.57970238px;font-style:normal;font-weight:normal;text-align:center;line-height:100%;letter-spacing:0px;word-spacing:0px;text-anchor:middle;fill:#000000;fill-opacity:1;stroke:none;font-family:Arial;-inkscape-font-specification:Arial;font-stretch:normal;font-variant:normal;writing-mode:lr"
       x="525.474"
       y="591.3385"
       id="text4004"
       sodipodi:linespacing="100%"><tspan
         sodipodi:role="line"
         x="525.474"
         y="591.3385"
         style="text-align:center;text-anchor:middle;font-family:Arial;-inkscape-font-specification:Arial;font-weight:normal;font-style:normal;font-stretch:normal;font-variant:normal;font-size:19.57970238px;writing-mode:lr;line-height:100%"
         id="tspan4006">Forms</tspan></text>
    <text
       sodipodi:linespacing="100%"
       id="text4008"
       y="537.3385"
       x="575.474"
       style="font-size:19.57970238px;font-style:normal;font-variant:normal;font-weight:normal;font-stretch:normal;text-align:center;line-height:100%;letter-spacing:0px;word-spacing:0px;writing-mode:lr;text-anchor:middle;fill:#000000;fill-opacity:1;stroke:none;font-family:Arial;-inkscape-font-specification:Arial"
       xml:space="preserve"><tspan
         id="tspan4010"
         style="font-size:19.57970238px;font-style:normal;font-variant:normal;font-weight:normal;font-stretch:normal;text-align:center;line-height:100%;writing-mode:lr;text-anchor:middle;font-family:Arial;-inkscape-font-specification:Arial"
         y="537.3385"
         x="575.474"
         sodipodi:role="line">View</tspan><tspan
         style="font-size:19.57970238px;font-style:normal;font-variant:normal;font-weight:normal;font-stretch:normal;text-align:center;line-height:100%;writing-mode:lr;text-anchor:middle;font-family:Arial;-inkscape-font-specification:Arial"
         y="556.91821"
         x="575.474"
         sodipodi:role="line"
         id="tspan4012">Functions</tspan></text>
    <text
       xml:space="preserve"
       style="font-size:19.57970238px;font-style:normal;font-variant:normal;font-weight:normal;font-stretch:normal;text-align:center;line-height:100%;letter-spacing:0px;word-spacing:0px;writing-mode:lr-tb;text-anchor:middle;fill:#000000;fill-opacity:1;stroke:none;font-family:Arial;-inkscape-font-specification:Arial"
       x="551.474"
       y="493.3385"
       id="text4014"
       sodipodi:linespacing="100%"><tspan
         id="tspan4018"
         sodipodi:role="line"
         x="551.474"
         y="493.3385"
         style="font-size:19.57970238px;font-style:normal;font-variant:normal;font-weight:normal;font-stretch:normal;text-align:center;line-height:100%;writing-mode:lr-tb;text-anchor:middle;font-family:Arial;-inkscape-font-specification:Arial">Static Files</tspan></text>
    <text
       sodipodi:linespacing="100%"
       id="text4022"
       y="453.3385"
       x="581.474"
       style="font-size:19.57970238px;font-style:normal;font-variant:normal;font-weight:normal;font-stretch:normal;text-align:center;line-height:100%;letter-spacing:0px;word-spacing:0px;writing-mode:lr-tb;text-anchor:middle;fill:#000000;fill-opacity:1;stroke:none;font-family:Arial;-inkscape-font-specification:Arial"
       xml:space="preserve"><tspan
         style="font-size:19.57970238px;font-style:normal;font-variant:normal;font-weight:normal;font-stretch:normal;text-align:center;line-height:100%;writing-mode:lr-tb;text-anchor:middle;font-family:Arial;-inkscape-font-specification:Arial"
         y="453.3385"
         x="581.474"
         sodipodi:role="line"
         id="tspan4024">Templates</tspan></text>
    <text
       sodipodi:linespacing="100%"
       id="text4026"
       y="611.3385"
       x="445.474"
       style="font-size:19.57970238px;font-style:normal;font-weight:normal;text-align:center;line-height:100%;letter-spacing:0px;word-spacing:0px;text-anchor:middle;fill:#000000;fill-opacity:1;stroke:none;font-family:Arial;-inkscape-font-specification:Arial;font-stretch:normal;font-variant:normal;writing-mode:lr"
       xml:space="preserve"><tspan
         id="tspan4028"
         style="text-align:center;text-anchor:middle;font-family:Arial;-inkscape-font-specification:Arial;font-weight:normal;font-style:normal;font-stretch:normal;font-variant:normal;font-size:19.57970238px;writing-mode:lr;line-height:100%"
         y="611.3385"
         x="445.474"
         sodipodi:role="line">Engines</tspan></text>
    <text
       xml:space="preserve"
       style="font-size:19.57970238px;font-style:normal;font-variant:normal;font-weight:normal;font-stretch:normal;text-align:center;line-height:100%;letter-spacing:0px;word-spacing:0px;writing-mode:lr;text-anchor:middle;fill:#000000;fill-opacity:1;stroke:none;font-family:Arial;-inkscape-font-specification:Arial"
       x="458.35855"
       y="717.3385"
       id="text4030"
       sodipodi:linespacing="100%"><tspan
         sodipodi:role="line"
         x="458.35855"
         y="717.3385"
         style="font-size:19.57970238px;font-style:normal;font-variant:normal;font-weight:normal;font-stretch:normal;text-align:center;line-height:100%;writing-mode:lr;text-anchor:middle;font-family:Arial;-inkscape-font-specification:Arial"
         id="tspan4032">Middleware</tspan><tspan
         sodipodi:role="line"
         x="458.35855"
         y="736.91821"
         style="font-size:19.57970238px;font-style:normal;font-variant:normal;font-weight:normal;font-stretch:normal;text-align:center;line-height:100%;writing-mode:lr;text-anchor:middle;font-family:Arial;-inkscape-font-specification:Arial"
         id="tspan4038">Classes</tspan></text>
    <text
       sodipodi:linespacing="100%"
       id="text4034"
       y="651.3385"
       x="505.474"
       style="font-size:19.57970238px;font-style:normal;font-weight:normal;text-align:center;line-height:100%;letter-spacing:0px;word-spacing:0px;text-anchor:middle;fill:#000000;fill-opacity:1;stroke:none;font-family:Arial;-inkscape-font-specification:Arial;font-stretch:normal;font-variant:normal;writing-mode:lr"
       xml:space="preserve"><tspan
         id="tspan4036"
         style="text-align:center;text-anchor:middle;font-family:Arial;-inkscape-font-specification:Arial;font-weight:normal;font-style:normal;font-stretch:normal;font-variant:normal;font-size:19.57970238px;writing-mode:lr;line-height:100%"
         y="651.3385"
         x="505.474"
         sodipodi:role="line">Signals</tspan></text>
    <text
       xml:space="preserve"
       style="font-size:19.57970238px;font-style:normal;font-weight:normal;text-align:center;line-height:100%;letter-spacing:0px;word-spacing:0px;text-anchor:middle;fill:#000000;fill-opacity:1;stroke:none;font-family:Arial;-inkscape-font-specification:Arial;font-stretch:normal;font-variant:normal;writing-mode:lr"
       x="405.474"
       y="665.3385"
       id="text4040"
       sodipodi:linespacing="100%"><tspan
         sodipodi:role="line"
         x="405.474"
         y="665.3385"
         style="text-align:center;text-anchor:middle;font-family:Arial;-inkscape-font-specification:Arial;font-weight:normal;font-style:normal;font-stretch:normal;font-variant:normal;font-size:19.57970238px;writing-mode:lr;line-height:100%"
         id="tspan4042">TCPs</tspan></text>
    <text
       sodipodi:linespacing="100%"
       id="text4044"
       y="411.3385"
       x="545.474"
       style="font-size:19.57970238px;font-style:normal;font-weight:normal;text-align:center;line-height:100%;letter-spacing:0px;word-spacing:0px;text-anchor:middle;fill:#000000;fill-opacity:1;stroke:none;font-family:Arial;-inkscape-font-specification:Arial;font-stretch:normal;font-variant:normal;writing-mode:lr"
       xml:space="preserve"><tspan
         style="text-align:center;text-anchor:middle;font-family:Arial;-inkscape-font-specification:Arial;font-weight:normal;font-style:normal;font-stretch:normal;font-variant:normal;font-size:19.57970238px;writing-mode:lr;line-height:100%"
         y="411.3385"
         x="545.474"
         sodipodi:role="line"
         id="tspan4046">URLs</tspan></text>
    <g
       id="g4171"
       transform="translate(14,-12)">
      <path
         id="path4111"
         d="m 205.68258,553.45142 0,90.875 c -0.0687,0.45636 -0.125,0.91075 -0.125,1.375 0,11.05855 19.80901,20.03125 44.25,20.03125 24.44099,0 44.25,-8.9727 44.25,-20.03125 0,-0.51837 -0.0395,-1.02279 -0.125,-1.53125 l 0,-90.71875 -88.25,0 z"
         style="fill:url(#linearGradient4178);fill-opacity:1;stroke:#f4a300;stroke-width:1.5;stroke-miterlimit:4;stroke-opacity:1;stroke-dasharray:none"
         inkscape:connector-curvature="0" />
      <path
         sodipodi:nodetypes="csccsc"
         inkscape:connector-curvature="0"
         id="path4070"
         d="m 205.56427,554.06995 c 0,-11.05855 19.81334,-20.02328 44.25433,-20.02328 24.44099,0 44.25433,8.96473 44.25433,20.02328 m 0,0 c 0,11.05855 -19.81334,20.02328 -44.25433,20.02328 -24.44099,0 -44.25433,-8.96473 -44.25433,-20.02328"
         style="fill:url(#radialGradient4180);fill-opacity:1;stroke:#f4a300;stroke-width:1.5;stroke-miterlimit:4;stroke-opacity:1;stroke-dasharray:none" />
      <text
         transform="matrix(0,-1,1,0,0,0)"
         sodipodi:linespacing="125%"
         id="text4142"
         y="197.59174"
         x="-646.659"
         style="font-size:13px;font-style:normal;font-variant:normal;font-weight:900;font-stretch:normal;text-align:start;line-height:125%;letter-spacing:0px;word-spacing:0px;writing-mode:lr-tb;text-anchor:start;fill:#000000;fill-opacity:1;stroke:none;font-family:Arial Black;-inkscape-font-specification:'Arial Black, Heavy'"
         xml:space="preserve"><tspan
           style="font-size:13px;font-style:normal;font-variant:normal;font-weight:900;font-stretch:normal;text-align:start;line-height:125%;writing-mode:lr-tb;text-anchor:start;font-family:Arial Black;-inkscape-font-specification:'Arial Black, Heavy'"
           y="197.59174"
           x="-646.659"
           id="tspan4144"
           sodipodi:role="line">PERSISTENCE</tspan></text>
      <path
         inkscape:connector-curvature="0"
         id="path4156"
         d="m 247.71875,526.09375 c -17.53344,0.64721 -38.25566,3.90517 -48.1875,20.09375 -4.44244,11.86339 -0.39015,24.76575 -1.72492,37.0621 0.38856,23.00016 -1.62592,46.33892 1.22492,69.1254 7.02945,14.7591 24.92799,18.92859 39.8125,20.6875 20.61201,2.10132 44.45811,-0.37619 59.34375,-16.03125 7.28673,-11.41831 2.36375,-25.49571 3.66695,-38.12493 -0.39424,-23.79706 1.53208,-47.90042 -1.2607,-71.50007 -7.38022,-15.29615 -25.99278,-19.10801 -41.30839,-20.96554 -3.84383,-0.32991 -7.70949,-0.44814 -11.56661,-0.34696 z"
         style="fill:#ffffff;fill-opacity:0.30196078;stroke:none" />
    </g>
    <text
       sodipodi:linespacing="100%"
       id="text4182"
       y="515.3385"
       x="355.47397"
       style="font-size:19.57970238px;font-style:normal;font-variant:normal;font-weight:normal;font-stretch:normal;text-align:center;line-height:100%;letter-spacing:0px;word-spacing:0px;writing-mode:lr-tb;text-anchor:middle;fill:#000000;fill-opacity:1;stroke:none;font-family:Arial;-inkscape-font-specification:Arial"
       xml:space="preserve"><tspan
         id="tspan4186"
         style="font-size:19.57970238px;font-style:normal;font-variant:normal;font-weight:normal;font-stretch:normal;text-align:center;line-height:100%;writing-mode:lr-tb;text-anchor:middle;font-family:Arial;-inkscape-font-specification:Arial"
         y="515.3385"
         x="355.47397"
         sodipodi:role="line">Fixtures</tspan></text>
  </g>
</svg>
